<svg width="25" height="30" viewBox="0 0 25 30" fill="none" xmlns="http://www.w3.org/2000/svg">
<path d="M22.7273 3.21429H19.3182V2.14286C19.3182 1.57454 19.0787 1.02949 18.6525 0.627628C18.2263 0.225765 17.6482 0 17.0455 0H7.95455C7.35178 0 6.7737 0.225765 6.34748 0.627628C5.92127 1.02949 5.68182 1.57454 5.68182 2.14286V3.21429H2.27273C1.66996 3.21429 1.09189 3.44005 0.665666 3.84191C0.239447 4.24378 0 4.78882 0 5.35714V27.8571C0 28.4255 0.239447 28.9705 0.665666 29.3724C1.09189 29.7742 1.66996 30 2.27273 30H22.7273C23.33 30 23.9081 29.7742 24.3343 29.3724C24.7606 28.9705 25 28.4255 25 27.8571V5.35714C25 4.78882 24.7606 4.24378 24.3343 3.84191C23.9081 3.44005 23.33 3.21429 22.7273 3.21429ZM7.95455 2.14286H17.0455V6.42857H7.95455V2.14286ZM22.7273 27.8571H2.27273V5.35714H5.68182V8.57143H19.3182V5.35714H22.7273V27.8571Z" fill="white"/>
</svg>
