<svg width="11" height="14" viewBox="0 0 11 14" fill="none" xmlns="http://www.w3.org/2000/svg">
<path d="M4.63333 7.03333L3.71667 6.1C3.58333 5.96667 3.42511 5.9 3.242 5.9C3.05889 5.9 2.90044 5.96667 2.76667 6.1C2.63333 6.23333 2.56378 6.39178 2.558 6.57533C2.55222 6.75889 2.61622 6.91711 2.75 7.05L4.16667 8.46667C4.3 8.6 4.45556 8.66667 4.63333 8.66667C4.81111 8.66667 4.96667 8.6 5.1 8.46667L7.93333 5.63333C8.06667 5.5 8.13333 5.34178 8.13333 5.15867C8.13333 4.97556 8.06667 4.81711 7.93333 4.68333C7.8 4.55 7.64156 4.48333 7.458 4.48333C7.27445 4.48333 7.11622 4.55 6.98333 4.68333L4.63333 7.03333ZM5.33333 13.1833H5.16667C5.11111 13.1833 5.06111 13.1722 5.01667 13.15C3.56111 12.6944 2.36111 11.7916 1.41667 10.4413C0.472222 9.09111 0 7.59956 0 5.96667V2.81667C0 2.53889 0.0806666 2.28889 0.242 2.06667C0.403333 1.84444 0.611556 1.68333 0.866667 1.58333L4.86667 0.0833333C5.02222 0.0277778 5.17778 0 5.33333 0C5.48889 0 5.64444 0.0277778 5.8 0.0833333L9.8 1.58333C10.0556 1.68333 10.264 1.84444 10.4253 2.06667C10.5867 2.28889 10.6671 2.53889 10.6667 2.81667V5.96667C10.6667 7.6 10.1944 9.09178 9.25 10.442C8.30556 11.7922 7.10556 12.6949 5.65 13.15C5.59444 13.1722 5.48889 13.1833 5.33333 13.1833ZM5.33333 11.8333C6.48889 11.4667 7.44444 10.7333 8.2 9.63333C8.95555 8.53333 9.33333 7.31111 9.33333 5.96667V2.81667L5.33333 1.31667L1.33333 2.81667V5.96667C1.33333 7.31111 1.71111 8.53333 2.46667 9.63333C3.22222 10.7333 4.17778 11.4667 5.33333 11.8333Z" fill="#72ECAA"/>
</svg>
