<svg width="27" height="30" viewBox="0 0 27 30" fill="none" xmlns="http://www.w3.org/2000/svg">
<path d="M14.3005 28.6983L14.2856 28.701L14.1898 28.7482L14.1628 28.7536L14.1439 28.7482L14.048 28.701C14.0336 28.6965 14.0228 28.6987 14.0156 28.7077L14.0102 28.7212L13.9873 29.299L13.994 29.326L14.0075 29.3436L14.1479 29.4435L14.1682 29.4489L14.1844 29.4435L14.3248 29.3436L14.341 29.322L14.3464 29.299L14.3234 28.7226C14.3198 28.7082 14.3122 28.7001 14.3005 28.6983ZM14.6582 28.5458L14.6407 28.5484L14.3909 28.674L14.3774 28.6875L14.3734 28.7023L14.3977 29.2828L14.4044 29.299L14.4152 29.3085L14.6866 29.434C14.7037 29.4385 14.7167 29.4349 14.7257 29.4232L14.7311 29.4043L14.6852 28.5754C14.6807 28.5592 14.6717 28.5494 14.6582 28.5458ZM13.693 28.5484C13.687 28.5448 13.6799 28.5437 13.6731 28.5452C13.6663 28.5467 13.6604 28.5508 13.6565 28.5565L13.6484 28.5754L13.6025 29.4043C13.6034 29.4205 13.6111 29.4314 13.6255 29.4368L13.6457 29.434L13.9171 29.3085L13.9306 29.2977L13.936 29.2828L13.9589 28.7023L13.9549 28.6862L13.9414 28.6727L13.693 28.5484Z" fill="white"/>
<path d="M13.5 0C14.7096 0 15.8814 0.1593 16.9965 0.45765L14.1264 3.3264C13.9087 3.54501 13.7166 3.78778 13.554 4.05H13.5C11.631 4.05 9.80391 4.60423 8.24986 5.64261C6.69582 6.68099 5.48459 8.15688 4.76934 9.88364C4.05409 11.6104 3.86695 13.5105 4.23158 15.3436C4.59621 17.1767 5.49623 18.8606 6.81784 20.1822C8.13945 21.5038 9.82328 22.4038 11.6564 22.7684C13.4895 23.1331 15.3896 22.9459 17.1164 22.2307C18.8431 21.5154 20.319 20.3042 21.3574 18.7501C22.3958 17.1961 22.95 15.369 22.95 13.5V13.446C23.211 13.284 23.4517 13.0927 23.6723 12.8722L26.5423 10.0035C26.8407 11.1186 27 12.2904 27 13.5C27 20.9561 20.9561 27 13.5 27C6.04395 27 0 20.9561 0 13.5C0 6.04395 6.04395 0 13.5 0ZM12.9411 6.77295C12.9411 7.9218 12.8844 9.08685 12.9465 10.2344L12.2175 10.9634C11.9667 11.2141 11.7678 11.5118 11.6321 11.8395C11.4964 12.1671 11.4265 12.5183 11.4265 12.8729C11.4265 13.2276 11.4964 13.5787 11.6321 13.9064C11.7678 14.234 11.9667 14.5317 12.2175 14.7825C12.4683 15.0333 12.766 15.2322 13.0936 15.3679C13.4213 15.5036 13.7724 15.5735 14.1271 15.5735C14.4817 15.5735 14.8329 15.5036 15.1605 15.3679C15.4882 15.2322 15.7859 15.0333 16.0366 14.7825L16.7656 14.0535C17.9132 14.1156 19.0769 14.0589 20.2271 14.0589C20.1204 15.3419 19.6491 16.5676 18.8687 17.5915C18.0883 18.6154 17.0314 19.3947 15.8226 19.8377C14.6138 20.2806 13.3036 20.3686 12.0464 20.0913C10.7893 19.8141 9.6376 19.183 8.72728 18.2727C7.81696 17.3624 7.18595 16.2107 6.90867 14.9536C6.63139 13.6964 6.71941 12.3862 7.16234 11.1774C7.60527 9.96859 8.38465 8.91167 9.40854 8.13129C10.4324 7.3509 11.6581 6.87959 12.9411 6.77295ZM22.2804 0.17145C22.5268 0.273617 22.7374 0.446495 22.8857 0.668263C23.0339 0.89003 23.1132 1.15075 23.1133 1.4175V3.888H25.5825C25.8495 3.88806 26.1104 3.96726 26.3324 4.11561C26.5543 4.26395 26.7273 4.47477 26.8295 4.72142C26.9316 4.96806 26.9584 5.23946 26.9063 5.50129C26.8542 5.76313 26.7257 6.00365 26.5369 6.19245L21.762 10.962C21.5089 11.2152 21.1656 11.3575 20.8076 11.3576H17.55L15.0822 13.8267C14.8289 14.08 14.4853 14.2223 14.1271 14.2223C13.7688 14.2223 13.4253 14.08 13.172 13.8267C12.9186 13.5734 12.7763 13.2298 12.7763 12.8716C12.7763 12.5133 12.9186 12.1698 13.172 11.9164L15.6411 9.45V6.1911C15.641 6.0136 15.6758 5.83782 15.7437 5.67381C15.8116 5.5098 15.9111 5.36079 16.0366 5.2353L20.8089 0.46305C20.9977 0.274141 21.2383 0.145474 21.5002 0.0933274C21.7621 0.0411809 22.0337 0.0678984 22.2804 0.1701" fill="white"/>
</svg>
