<svg width="59" height="67" viewBox="0 0 59 67" fill="none" xmlns="http://www.w3.org/2000/svg">
<path d="M50.5714 67H8.42857C6.19318 67 4.04934 66.1176 2.46867 64.547C0.888007 62.9764 0 60.8462 0 58.625V8.375C0 6.15381 0.888007 4.0236 2.46867 2.45298C4.04934 0.882363 6.19318 0 8.42857 0H12.6429V20.9375L21.0714 14.6562L29.5 20.9375V0H50.5714C52.8068 0 54.9507 0.882363 56.5313 2.45298C58.112 4.0236 59 6.15381 59 8.375V58.625C59 60.8462 58.112 62.9764 56.5313 64.547C54.9507 66.1176 52.8068 67 50.5714 67Z" fill="#0F0F60"/>
</svg>
