<svg width="6" height="10" viewBox="0 0 6 10" fill="none" xmlns="http://www.w3.org/2000/svg">
<path d="M0.253123 9.75374C0.332674 9.83177 0.427318 9.89371 0.531596 9.93597C0.635874 9.97824 0.747722 10 0.860688 10C0.973654 10 1.0855 9.97824 1.18978 9.93597C1.29406 9.89371 1.3887 9.83177 1.46825 9.75374L5.74688 5.5911C5.82708 5.5137 5.89074 5.42162 5.93419 5.32017C5.97763 5.21872 6 5.1099 6 5C6 4.8901 5.97763 4.78128 5.93419 4.67983C5.89074 4.57838 5.82708 4.4863 5.74688 4.4089L1.46825 0.246262C1.3887 0.16823 1.29406 0.106294 1.18978 0.0640273C1.0855 0.0217604 0.973653 4.39417e-07 0.860687 4.49293e-07C0.747721 4.59169e-07 0.635873 0.0217605 0.531595 0.0640273C0.427317 0.106294 0.332673 0.168231 0.253122 0.246262C0.172916 0.323657 0.109255 0.415735 0.0658113 0.517186C0.0223671 0.618637 -3.33795e-07 0.727454 -3.24187e-07 0.837357C-3.14579e-07 0.94726 0.0223672 1.05608 0.0658113 1.15753C0.109256 1.25898 0.172916 1.35106 0.253122 1.42845L3.93274 5L0.253123 8.57155C0.172917 8.64894 0.109256 8.74102 0.065812 8.84247C0.0223679 8.94392 3.94025e-07 9.05274 4.03633e-07 9.16264C4.13241e-07 9.27255 0.0223679 9.38136 0.0658121 9.48282C0.109256 9.58427 0.172917 9.67635 0.253123 9.75374Z" fill="#0B0E31"/>
</svg>
