<svg width="26" height="26" viewBox="0 0 26 26" fill="none" xmlns="http://www.w3.org/2000/svg">
<path d="M24.375 18.0254C24.7961 18.0244 25.144 18.1655 25.4277 18.4492C25.7112 18.7328 25.8515 19.0794 25.8496 19.499V22.75C25.8496 23.6036 25.5484 24.3313 24.9404 24.9404C24.3325 25.5494 23.6047 25.8506 22.75 25.8496H3.25C2.39639 25.8496 1.66947 25.5483 1.06152 24.9404C0.453578 24.3325 0.151469 23.6048 0.150391 22.75V19.5C0.150391 19.0774 0.291857 18.7306 0.574219 18.4492C0.856769 18.1677 1.2036 18.0265 1.625 18.0254C2.0461 18.0244 2.39403 18.1655 2.67773 18.4492C2.96125 18.7328 3.10153 19.0794 3.09961 19.499V22.9004H22.9004V19.5C22.9004 19.0774 23.0419 18.7306 23.3242 18.4492C23.6068 18.1677 23.9536 18.0265 24.375 18.0254ZM13 0.150391C13.4211 0.149397 13.769 0.290511 14.0527 0.574219C14.3363 0.857817 14.4765 1.20444 14.4746 1.62402V13.6055L14.7314 13.3496L17.7783 10.3027C18.0749 10.0063 18.4214 9.86714 18.8262 9.87891C19.2319 9.8907 19.5794 10.0424 19.876 10.3389H19.877C20.1511 10.6379 20.2928 10.9831 20.3057 11.3799C20.3167 11.7203 20.2127 12.0232 19.9863 12.293L19.8818 12.4062L14.0312 18.2568C13.8823 18.4057 13.7245 18.5076 13.5586 18.5674C13.3868 18.6292 13.2013 18.6602 13.001 18.6592H13C12.7991 18.6592 12.6127 18.6284 12.4404 18.5674C12.3164 18.5234 12.1969 18.455 12.082 18.3604L11.9688 18.2568L6.11816 12.4062C5.82073 12.1087 5.68276 11.7689 5.69434 11.3799C5.70475 11.0328 5.81468 10.7249 6.02637 10.4531L6.12305 10.3389C6.42078 10.0431 6.76984 9.89265 7.17578 9.88086C7.58058 9.86917 7.92632 10.0075 8.22168 10.3027L11.2686 13.3496L11.5254 13.6055V1.625C11.5254 1.20245 11.6669 0.855599 11.9492 0.574219C12.2318 0.292742 12.5786 0.151461 13 0.150391Z" fill="#0B0E31" stroke="#F4F4FE" stroke-width="0.3"/>
</svg>
