<svg width="23" height="26" viewBox="0 0 23 26" fill="none" xmlns="http://www.w3.org/2000/svg">
<path d="M19.7143 26H3.28571C2.41429 26 1.57855 25.6576 0.962363 25.0481C0.346172 24.4386 0 23.612 0 22.75V3.25C0 2.38805 0.346172 1.5614 0.962363 0.951903C1.57855 0.34241 2.41429 0 3.28571 0H4.92857V8.125L8.21429 5.6875L11.5 8.125V0H19.7143C20.5857 0 21.4214 0.34241 22.0376 0.951903C22.6538 1.5614 23 2.38805 23 3.25V22.75C23 23.612 22.6538 24.4386 22.0376 25.0481C21.4214 25.6576 20.5857 26 19.7143 26Z" fill="white"/>
</svg>
