<svg width="27" height="27" viewBox="0 0 27 27" fill="none" xmlns="http://www.w3.org/2000/svg">
<path d="M11.6413 5.73163C15.1959 1.72584 20.7263 0 25.8088 0C26.1247 0 26.4277 0.125457 26.6511 0.348772C26.8745 0.572087 27 0.874967 27 1.19078C27 6.27145 25.2735 11.7999 21.2663 15.3531C21.1694 16.9663 20.6707 18.581 19.9576 19.9988C19.1634 21.577 18.0596 22.9948 16.8239 23.9331C15.6152 24.8508 14.0523 25.4621 12.5085 24.8873C11.0473 24.3428 10.0626 22.9027 9.49079 20.8577L6.13476 17.5013C4.08905 16.9313 2.64848 15.947 2.1037 14.4863C1.52874 12.943 2.14023 11.3807 3.05826 10.1725C3.99693 8.93721 5.41526 7.83376 6.99402 7.0399C8.41235 6.32702 10.0276 5.82848 11.6397 5.73322M9.52891 8.56093C9.02692 8.72853 8.53755 8.93174 8.06452 9.16902C6.73671 9.83745 5.62968 10.7282 4.95625 11.6141C4.26217 12.5286 4.17323 13.2177 4.33682 13.6559C4.46865 14.0147 4.8959 14.5402 6.0744 14.9832C6.34282 14.3815 6.72877 13.5495 7.2132 12.5953C7.82945 11.3839 8.61406 9.95811 9.52891 8.56093ZM12.013 20.9212C12.4545 22.0993 12.9818 22.5248 13.3408 22.6598C13.7776 22.8217 14.4685 22.7328 15.3833 22.0406C16.2696 21.3658 17.1606 20.2592 17.8293 18.9318C18.0696 18.4545 18.2724 17.9665 18.4376 17.468C17.1357 18.312 15.789 19.0848 14.4033 19.7829C13.4472 20.2671 12.6149 20.6529 12.013 20.9212ZM2.43724 19.8543C3.07746 19.3197 3.89172 19.0386 4.72553 19.0643C5.55934 19.0901 6.35468 19.4209 6.96066 19.994L6.97496 20.0099C8.24399 21.2642 8.22334 23.2711 7.13855 24.5587C6.67001 25.1176 6.02993 25.5208 5.42797 25.8162C4.81331 26.1178 4.15099 26.3449 3.56174 26.5147C2.85337 26.7162 2.13298 26.8726 1.40486 26.9831L1.36674 26.9879L1.35403 26.9895H1.34927C1.16785 27.0137 0.983275 26.9959 0.809872 26.9373C0.636468 26.8788 0.4789 26.781 0.349398 26.6517C0.219895 26.5224 0.121942 26.365 0.0631415 26.1918C0.00434102 26.0185 -0.013725 25.834 0.0103458 25.6526V25.6479L0.0119339 25.6352L0.0182874 25.597C0.0474173 25.3902 0.0823733 25.1843 0.123114 24.9794C0.197763 24.5809 0.315296 24.0332 0.485242 23.4378C0.663427 22.7954 0.89671 22.1697 1.1825 21.5674C1.47633 20.9641 1.87975 20.3259 2.43724 19.8543ZM19.3556 7.49399C19.1323 7.27099 18.8295 7.14574 18.5138 7.14574C18.1981 7.14574 17.8954 7.27099 17.672 7.49399L16.5491 8.6165C16.3387 8.84223 16.2241 9.14079 16.2296 9.44929C16.235 9.75778 16.3601 10.0521 16.5783 10.2703C16.7966 10.4885 17.091 10.6134 17.3996 10.6189C17.7082 10.6243 18.0069 10.5098 18.2327 10.2995L19.3556 9.17696C19.5787 8.95369 19.704 8.65103 19.704 8.33547C19.704 8.01992 19.5787 7.71726 19.3556 7.49399Z" fill="white"/>
</svg>
