<svg width="27" height="27" viewBox="0 0 27 27" fill="none" xmlns="http://www.w3.org/2000/svg">
<path d="M9.80597 27L9.26866 22.68C8.97761 22.5675 8.70358 22.4325 8.44657 22.275C8.18955 22.1175 7.93746 21.9487 7.6903 21.7688L3.69403 23.4563L0 17.0438L3.45896 14.4113C3.43657 14.2538 3.42537 14.1021 3.42537 13.9563V13.0451C3.42537 12.8984 3.43657 12.7463 3.45896 12.5887L0 9.95625L3.69403 3.54375L7.6903 5.23125C7.93657 5.05125 8.19403 4.8825 8.46269 4.725C8.73134 4.5675 9 4.4325 9.26866 4.32L9.80597 0H17.194L17.7313 4.32C18.0224 4.4325 18.2969 4.5675 18.5548 4.725C18.8127 4.8825 19.0643 5.05125 19.3097 5.23125L23.306 3.54375L27 9.95625L23.541 12.5887C23.5634 12.7463 23.5746 12.8984 23.5746 13.0451V13.955C23.5746 14.1017 23.5522 14.2538 23.5075 14.4113L26.9664 17.0438L23.2724 23.4563L19.3097 21.7688C19.0634 21.9487 18.806 22.1175 18.5373 22.275C18.2687 22.4325 18 22.5675 17.7313 22.68L17.194 27H9.80597ZM13.5672 18.225C14.8657 18.225 15.9739 17.7638 16.8918 16.8413C17.8097 15.9188 18.2687 14.805 18.2687 13.5C18.2687 12.195 17.8097 11.0812 16.8918 10.1587C15.9739 9.23625 14.8657 8.775 13.5672 8.775C12.2463 8.775 11.1322 9.23625 10.2251 10.1587C9.31791 11.0812 8.86478 12.195 8.86567 13.5C8.86657 14.805 9.32015 15.9188 10.2264 16.8413C11.1327 17.7638 12.2463 18.225 13.5672 18.225Z" fill="white"/>
</svg>
