<svg width="131" height="137" viewBox="0 0 131 137" fill="none" xmlns="http://www.w3.org/2000/svg">
<path d="M69.2803 133.27L69.2101 133.283L68.7575 133.506L68.63 133.531L68.5408 133.506L68.0881 133.283C68.0201 133.261 67.9691 133.272 67.9351 133.314L67.9096 133.378L67.8012 136.107L67.8331 136.234L67.8969 136.317L68.5599 136.789L68.6555 136.814L68.732 136.789L69.395 136.317L69.4715 136.215L69.497 136.107L69.3886 133.385C69.3716 133.317 69.3355 133.278 69.2803 133.27ZM70.9696 132.549L70.8868 132.562L69.7074 133.155L69.6436 133.219L69.6245 133.289L69.7392 136.03L69.7711 136.107L69.8221 136.151L71.1035 136.744C71.1842 136.765 71.2459 136.748 71.2884 136.693L71.3139 136.604L71.0971 132.69C71.0759 132.613 71.0334 132.566 70.9696 132.549ZM66.4115 132.562C66.3834 132.545 66.3498 132.54 66.3178 132.547C66.2857 132.554 66.2576 132.573 66.2394 132.6L66.2011 132.69L65.9844 136.604C65.9886 136.68 66.0248 136.731 66.0928 136.757L66.1884 136.744L67.4697 136.151L67.5335 136.1L67.559 136.03L67.6674 133.289L67.6482 133.212L67.5845 133.149L66.4115 132.562Z" fill="#0B0E31"/>
<path d="M73.7811 5.06851L128.823 100.4C129.662 101.854 130.104 103.503 130.104 105.181C130.104 106.86 129.662 108.509 128.823 109.963C127.984 111.416 126.777 112.623 125.323 113.463C123.869 114.302 122.22 114.744 120.542 114.744H10.4583C8.7797 114.744 7.13074 114.302 5.67709 113.463C4.22344 112.623 3.01632 111.416 2.17707 109.963C1.33781 108.509 0.895985 106.86 0.895996 105.181C0.896007 103.503 1.33785 101.854 2.17713 100.4L57.2189 5.06851C60.8973 -1.30649 70.0964 -1.30649 73.7811 5.06851ZM65.5 16.2248L15.979 101.994H115.021L65.5 16.2248ZM65.5 80.625C67.1908 80.625 68.8123 81.2967 70.0078 82.4922C71.2034 83.6878 71.875 85.3093 71.875 87C71.875 88.6908 71.2034 90.3123 70.0078 91.5078C68.8123 92.7034 67.1908 93.375 65.5 93.375C63.8092 93.375 62.1877 92.7034 60.9922 91.5078C59.7967 90.3123 59.125 88.6908 59.125 87C59.125 85.3093 59.7967 83.6878 60.9922 82.4922C62.1877 81.2967 63.8092 80.625 65.5 80.625ZM65.5 36C67.1908 36 68.8123 36.6717 70.0078 37.8672C71.2034 39.0628 71.875 40.6843 71.875 42.375V67.875C71.875 69.5658 71.2034 71.1873 70.0078 72.3828C68.8123 73.5784 67.1908 74.25 65.5 74.25C63.8092 74.25 62.1877 73.5784 60.9922 72.3828C59.7967 71.1873 59.125 69.5658 59.125 67.875V42.375C59.125 40.6843 59.7967 39.0628 60.9922 37.8672C62.1877 36.6717 63.8092 36 65.5 36Z" fill="#0B0E31"/>
</svg>
