<svg width="10" height="6" viewBox="0 0 10 6" fill="none" xmlns="http://www.w3.org/2000/svg">
<path d="M0.24626 0.253123C0.168229 0.332674 0.106294 0.427318 0.0640272 0.531596C0.0217608 0.635874 -2.29584e-07 0.747722 -2.24646e-07 0.860688C-2.19709e-07 0.973653 0.0217608 1.0855 0.0640272 1.18978C0.106294 1.29406 0.168229 1.3887 0.24626 1.46825L4.4089 5.74688C4.4863 5.82708 4.57838 5.89074 4.67983 5.93419C4.78128 5.97763 4.8901 6 5 6C5.1099 6 5.21872 5.97763 5.32017 5.93419C5.42162 5.89074 5.5137 5.82708 5.5911 5.74688L9.75374 1.46825C9.83177 1.3887 9.89371 1.29406 9.93597 1.18978C9.97824 1.0855 10 0.973653 10 0.860687C10 0.747721 9.97824 0.635873 9.93597 0.531595C9.89371 0.427317 9.83177 0.332673 9.75374 0.253122C9.67634 0.172916 9.58427 0.109256 9.48281 0.0658117C9.38136 0.0223675 9.27255 7.15212e-08 9.16264 7.63253e-08C9.05274 8.11293e-08 8.94392 0.0223676 8.84247 0.0658117C8.74102 0.109256 8.64894 0.172917 8.57155 0.253122L5 3.93274L1.42845 0.253123C1.35106 0.172917 1.25898 0.109256 1.15753 0.0658121C1.05608 0.0223679 0.947259 4.35431e-07 0.837356 4.40235e-07C0.727452 4.45039e-07 0.618636 0.0223679 0.517185 0.0658121C0.415733 0.109256 0.323655 0.172917 0.24626 0.253123Z" fill="#0B0E31"/>
</svg>
