<svg width="201" height="201" viewBox="0 0 201 201" fill="none" xmlns="http://www.w3.org/2000/svg">
<path d="M159.544 41.1212C151.864 33.3669 142.719 27.2185 132.639 23.0343C122.56 18.8501 111.748 16.7138 100.835 16.75C55.1075 16.75 17.8387 54.0187 17.8387 99.7462C17.8387 114.402 21.6912 128.64 28.8937 141.202L17.1687 184.25L61.1375 172.692C73.2812 179.309 86.9325 182.826 100.835 182.826C146.562 182.826 183.831 145.557 183.831 99.83C183.831 77.6362 175.205 56.7825 159.544 41.1212ZM100.835 168.756C88.44 168.756 76.2962 165.406 65.66 159.125L63.1475 157.617L37.0175 164.485L43.9687 139.025L42.2937 136.429C35.4057 125.433 31.749 112.721 31.7412 99.7462C31.7412 61.7237 62.7287 30.7363 100.751 30.7363C119.176 30.7363 136.512 37.9388 149.494 51.0037C155.923 57.4011 161.017 65.0113 164.482 73.3929C167.947 81.7745 169.713 90.7606 169.678 99.83C169.845 137.852 138.857 168.756 100.835 168.756ZM138.69 117.166C136.596 116.161 126.379 111.136 124.536 110.382C122.61 109.712 121.27 109.377 119.846 111.387C118.422 113.481 114.486 118.171 113.314 119.511C112.141 120.935 110.885 121.102 108.791 120.014C106.697 119.009 99.9975 116.747 92.125 109.712C85.9275 104.185 81.8237 97.4012 80.5675 95.3075C79.395 93.2137 80.4 92.125 81.4887 91.0362C82.41 90.115 83.5825 88.6075 84.5875 87.435C85.5925 86.2625 86.0112 85.3412 86.6812 84.0012C87.3512 82.5775 87.0162 81.405 86.5137 80.4C86.0112 79.395 81.8237 69.1775 80.1487 64.99C78.4737 60.97 76.715 61.4725 75.4587 61.3887H71.4387C70.015 61.3887 67.8375 61.8912 65.9112 63.985C64.0687 66.0787 58.7087 71.1037 58.7087 81.3212C58.7087 91.5387 66.1625 101.421 67.1675 102.761C68.1725 104.185 81.8237 125.122 102.594 134.084C107.535 136.261 111.387 137.517 114.402 138.439C119.344 140.03 123.866 139.779 127.467 139.276C131.487 138.69 139.779 134.251 141.454 129.394C143.212 124.536 143.213 120.432 142.626 119.511C142.04 118.59 140.784 118.171 138.69 117.166Z" fill="#1B8800"/>
</svg>
