<svg width="167" height="169" viewBox="0 0 167 169" fill="none" xmlns="http://www.w3.org/2000/svg">
<path d="M142.544 25.1212C134.864 17.3669 125.719 11.2185 115.639 7.03429C105.56 2.8501 94.7483 0.713846 83.835 0.750001C38.1075 0.750001 0.838748 38.0187 0.838748 83.7462C0.838748 98.4025 4.69125 112.64 11.8937 125.202L0.168747 168.25L44.1375 156.692C56.2812 163.309 69.9325 166.826 83.835 166.826C129.562 166.826 166.831 129.557 166.831 83.83C166.831 61.6362 158.205 40.7825 142.544 25.1212ZM83.835 152.756C71.44 152.756 59.2962 149.406 48.66 143.125L46.1475 141.617L20.0175 148.485L26.9687 123.025L25.2937 120.429C18.4057 109.433 14.749 96.7214 14.7412 83.7462C14.7412 45.7237 45.7287 14.7363 83.7512 14.7363C102.176 14.7363 119.512 21.9388 132.494 35.0037C138.923 41.4011 144.017 49.0113 147.482 57.3929C150.947 65.7745 152.713 74.7606 152.678 83.83C152.845 121.852 121.857 152.756 83.835 152.756ZM121.69 101.166C119.596 100.161 109.379 95.1362 107.536 94.3825C105.61 93.7125 104.27 93.3775 102.846 95.3875C101.422 97.4812 97.4862 102.171 96.3137 103.511C95.1412 104.935 93.885 105.102 91.7912 104.014C89.6975 103.009 82.9975 100.747 75.125 93.7125C68.9275 88.185 64.8237 81.4012 63.5675 79.3075C62.395 77.2137 63.4 76.125 64.4887 75.0362C65.41 74.115 66.5825 72.6075 67.5875 71.435C68.5925 70.2625 69.0112 69.3412 69.6812 68.0012C70.3512 66.5775 70.0162 65.405 69.5137 64.4C69.0112 63.395 64.8237 53.1775 63.1487 48.99C61.4737 44.97 59.715 45.4725 58.4587 45.3887H54.4387C53.015 45.3887 50.8375 45.8912 48.9112 47.985C47.0687 50.0787 41.7087 55.1037 41.7087 65.3212C41.7087 75.5387 49.1625 85.4212 50.1675 86.7612C51.1725 88.185 64.8237 109.122 85.5937 118.084C90.535 120.261 94.3875 121.517 97.4025 122.439C102.344 124.03 106.866 123.779 110.467 123.276C114.487 122.69 122.779 118.251 124.454 113.394C126.212 108.536 126.213 104.432 125.626 103.511C125.04 102.59 123.784 102.171 121.69 101.166Z" fill="white"/>
</svg>
