<svg width="10" height="18" viewBox="0 0 10 18" fill="none" xmlns="http://www.w3.org/2000/svg">
<path d="M0.421869 17.5567C0.554454 17.6972 0.712194 17.8087 0.885991 17.8847C1.05979 17.9608 1.2462 18 1.43448 18C1.62275 18 1.80917 17.9608 1.98296 17.8847C2.15676 17.8087 2.3145 17.6972 2.44709 17.5567L9.57813 10.064C9.71181 9.92466 9.81791 9.75892 9.89032 9.57631C9.96272 9.3937 10 9.19783 10 9C10 8.80217 9.96272 8.6063 9.89032 8.42369C9.81791 8.24108 9.71181 8.07534 9.57813 7.93603L2.44709 0.443271C2.3145 0.302814 2.15676 0.191329 1.98297 0.115249C1.80917 0.0391686 1.62276 -7.32362e-07 1.43448 -7.48822e-07C1.2462 -7.65281e-07 1.05979 0.0391685 0.885993 0.115249C0.712196 0.191329 0.554455 0.302814 0.421871 0.443271C0.288194 0.58258 0.182092 0.748321 0.109686 0.930932C0.0372797 1.11354 5.05463e-07 1.30941 4.88168e-07 1.50724C4.70874e-07 1.70507 0.0372796 1.90094 0.109686 2.08355C0.182092 2.26616 0.288194 2.4319 0.421871 2.57121L6.55457 9L0.42187 15.4288C0.288193 15.5681 0.182091 15.7338 0.109685 15.9165C0.0372783 16.0991 -8.04613e-07 16.2949 -8.21907e-07 16.4928C-8.39202e-07 16.6906 0.0372783 16.8865 0.109685 17.0691C0.182091 17.2517 0.288193 17.4174 0.421869 17.5567Z" fill="#0B0E31"/>
</svg>
