<svg width="27" height="27" viewBox="0 0 27 27" fill="none" xmlns="http://www.w3.org/2000/svg">
<path d="M13.4325 21.6C13.905 21.6 14.3046 21.4366 14.6313 21.1099C14.958 20.7832 15.1209 20.3841 15.12 19.9125C15.1191 19.4409 14.9562 19.0413 14.6313 18.7137C14.3064 18.3861 13.9068 18.2232 13.4325 18.225C12.9582 18.2268 12.559 18.3901 12.235 18.715C11.911 19.0399 11.7477 19.4391 11.745 19.9125C11.7423 20.3859 11.9056 20.7855 12.235 21.1113C12.5644 21.4371 12.9636 21.6 13.4325 21.6ZM12.2175 16.4025H14.715C14.715 15.66 14.7996 15.075 14.9688 14.6475C15.138 14.22 15.6159 13.635 16.4025 12.8925C16.9875 12.3075 17.4487 11.7504 17.7862 11.2212C18.1237 10.692 18.2925 10.0566 18.2925 9.31499C18.2925 8.055 17.8312 7.0875 16.9087 6.4125C15.9862 5.7375 14.895 5.4 13.635 5.4C12.3525 5.4 11.3121 5.7375 10.5138 6.4125C9.7155 7.0875 9.1584 7.8975 8.8425 8.8425L11.07 9.71999C11.1825 9.315 11.4358 8.87625 11.83 8.40375C12.2242 7.93125 12.8259 7.695 13.635 7.695C14.355 7.695 14.895 7.8921 15.255 8.2863C15.615 8.6805 15.795 9.1134 15.795 9.585C15.795 10.035 15.66 10.4571 15.39 10.8513C15.12 11.2455 14.7825 11.6109 14.3775 11.9475C13.3875 12.825 12.78 13.4887 12.555 13.9387C12.33 14.3887 12.2175 15.21 12.2175 16.4025ZM13.5 27C11.6325 27 9.8775 26.6458 8.235 25.9375C6.5925 25.2292 5.16375 24.2671 3.94875 23.0512C2.73375 21.8353 1.7721 20.4066 1.0638 18.765C0.355502 17.1234 0.000901708 15.3684 1.70886e-06 13.5C-0.00089829 11.6316 0.353702 9.8766 1.0638 8.235C1.7739 6.5934 2.73555 5.16465 3.94875 3.94875C5.16195 2.73285 6.5907 1.7712 8.235 1.06381C9.8793 0.356407 11.6343 0.00180682 13.5 6.81817e-06C15.3657 -0.00179318 17.1207 0.352807 18.765 1.06381C20.4093 1.7748 21.838 2.73645 23.0512 3.94875C24.2644 5.16105 25.2265 6.5898 25.9375 8.235C26.6485 9.8802 27.0027 11.6352 27 13.5C26.9973 15.3648 26.6427 17.1198 25.9362 18.765C25.2297 20.4102 24.268 21.8389 23.0512 23.0512C21.8344 24.2635 20.4057 25.2256 18.765 25.9375C17.1243 26.6494 15.3693 27.0036 13.5 27Z" fill="white"/>
</svg>
