<svg width="29" height="19" viewBox="0 0 29 19" fill="none" xmlns="http://www.w3.org/2000/svg">
<path fill-rule="evenodd" clip-rule="evenodd" d="M3.78261 2.28V3.8H2.26957C1.66764 3.8 1.09037 4.04021 0.66474 4.4678C0.239114 4.89538 0 5.47531 0 6.08V16.72C0 17.3247 0.239114 17.9046 0.66474 18.3322C1.09037 18.7598 1.66764 19 2.26957 19H22.9478C23.2459 19 23.541 18.941 23.8164 18.8264C24.0917 18.7119 24.3419 18.5439 24.5527 18.3322C24.7634 18.1205 24.9306 17.8691 25.0446 17.5925C25.1587 17.3159 25.2174 17.0194 25.2174 16.72V15.2H26.7304C27.9812 15.2 29 14.1765 29 12.92V2.28C29 1.02347 27.9812 0 26.7304 0H6.05217C4.80139 0 3.78261 1.02347 3.78261 2.28ZM6.30435 2.53333V3.8H22.9478C23.2459 3.8 23.541 3.85897 23.8164 3.97356C24.0917 4.08814 24.3419 4.25608 24.5527 4.4678C24.7634 4.67951 24.9306 4.93086 25.0446 5.20748C25.1587 5.4841 25.2174 5.78059 25.2174 6.08V12.6667H26.4783V2.53333H6.30435ZM10.087 11.4C10.087 10.7281 10.3526 10.0838 10.8256 9.60866C11.2985 9.13357 11.9399 8.86667 12.6087 8.86667C13.2775 8.86667 13.9189 9.13357 14.3918 9.60866C14.8648 10.0838 15.1304 10.7281 15.1304 11.4C15.1304 12.0719 14.8648 12.7162 14.3918 13.1913C13.9189 13.6664 13.2775 13.9333 12.6087 13.9333C11.9399 13.9333 11.2985 13.6664 10.8256 13.1913C10.3526 12.7162 10.087 12.0719 10.087 11.4Z" fill="white"/>
</svg>
