<svg width="72" height="72" viewBox="0 0 72 72" fill="none" xmlns="http://www.w3.org/2000/svg">
<path d="M36 0C16.1179 0 0 16.1179 0 36C0 55.8833 16.1179 72 36 72C55.8833 72 72 55.8833 72 36C72 16.1179 55.8833 0 36 0ZM36 67.5709C18.6311 67.5709 4.5 53.3689 4.5 35.9999C4.5 18.631 18.6311 4.49986 36 4.49986C53.3689 4.49986 67.5 18.6311 67.5 35.9999C67.5 53.3687 53.3689 67.5709 36 67.5709ZM51.75 33.75H38.25V20.25C38.25 19.008 37.242 18 36 18C34.758 18 33.75 19.008 33.75 20.25V33.75H20.25C19.008 33.75 18 34.758 18 36C18 37.242 19.008 38.25 20.25 38.25H33.75V51.75C33.75 52.992 34.758 54 36 54C37.242 54 38.25 52.992 38.25 51.75V38.25H51.75C52.992 38.25 54 37.242 54 36C54 34.758 52.992 33.75 51.75 33.75Z" fill="#0B0E31"/>
</svg>
