<svg width="68" height="68" viewBox="0 0 68 68" fill="none" xmlns="http://www.w3.org/2000/svg">
<path d="M33.6705 0C36.6874 0 39.61 0.397312 42.3912 1.14143L35.2328 8.29642C34.6898 8.84166 34.2108 9.44716 33.8052 10.1012H33.6705C29.009 10.1012 24.4521 11.4835 20.5761 14.0733C16.7001 16.6632 13.6792 20.3442 11.8953 24.6509C10.1114 28.9577 9.64461 33.6967 10.554 38.2687C11.4635 42.8407 13.7082 47.0404 17.0045 50.3366C20.3007 53.6328 24.5004 55.8776 29.0724 56.787C33.6444 57.6965 38.3834 57.2297 42.6901 55.4458C46.9969 53.6619 50.6779 50.6409 53.2677 46.765C55.8576 42.889 57.2399 38.3321 57.2399 33.6705V33.5359C57.8909 33.1318 58.4913 32.6548 59.0413 32.1049L66.1996 24.9499C66.9437 27.7311 67.3411 30.6537 67.3411 33.6705C67.3411 52.2668 52.2668 67.3411 33.6705 67.3411C15.0743 67.3411 0 52.2668 0 33.6705C0 15.0743 15.0743 0 33.6705 0ZM32.2766 16.8925C32.2766 19.7579 32.1352 22.6636 32.29 25.5256L30.4718 27.3438C29.8464 27.9693 29.3503 28.7118 29.0118 29.529C28.6733 30.3462 28.4991 31.222 28.4991 32.1065C28.4991 32.9911 28.6733 33.8669 29.0118 34.6841C29.3503 35.5013 29.8464 36.2438 30.4718 36.8692C31.0973 37.4947 31.8398 37.9908 32.657 38.3293C33.4742 38.6678 34.35 38.842 35.2345 38.842C36.119 38.842 36.9949 38.6678 37.8121 38.3293C38.6293 37.9908 39.3718 37.4947 39.9972 36.8692L41.8154 35.051C44.6774 35.2059 47.5798 35.0645 50.4486 35.0645C50.1826 38.2643 49.0071 41.3214 47.0607 43.8751C45.1143 46.4288 42.4783 48.3727 39.4634 49.4774C36.4486 50.5821 33.1807 50.8016 30.0451 50.1101C26.9096 49.4185 24.0373 47.8447 21.7668 45.5742C19.4964 43.3038 17.9226 40.4314 17.231 37.2959C16.5394 34.1604 16.759 30.8925 17.8637 27.8776C18.9684 24.8628 20.9123 22.2267 23.466 20.2803C26.0197 18.334 29.0767 17.1585 32.2766 16.8925ZM55.5698 0.427616C56.1844 0.682431 56.7097 1.11361 57.0795 1.66672C57.4492 2.21984 57.6468 2.87009 57.6473 3.53541V9.69711H63.8057C64.4715 9.69726 65.1223 9.89481 65.6759 10.2648C66.2295 10.6348 66.6609 11.1606 66.9157 11.7757C67.1705 12.3909 67.2372 13.0678 67.1073 13.7208C66.9775 14.3739 66.6569 14.9738 66.1862 15.4447L54.2769 27.3405C53.6456 27.972 52.7893 28.3268 51.8964 28.327H43.7717L37.6167 34.4854C36.9849 35.1172 36.128 35.4721 35.2345 35.4721C34.341 35.4721 33.4841 35.1172 32.8523 34.4854C32.2205 33.8536 31.8656 32.9967 31.8656 32.1032C31.8656 31.2097 32.2205 30.3528 32.8523 29.721L39.0107 23.5694V15.4413C39.0103 14.9986 39.0973 14.5602 39.2666 14.1511C39.4359 13.7421 39.6841 13.3704 39.9972 13.0574L51.8998 1.1549C52.3706 0.683738 52.9707 0.362828 53.624 0.232769C54.2772 0.10271 54.9544 0.169346 55.5698 0.424248" fill="#0F0F60"/>
</svg>
