<svg width="24" height="30" viewBox="0 0 24 30" fill="none" xmlns="http://www.w3.org/2000/svg">
<path d="M23.115 8.115L15.87 0.87C15.315 0.315 14.55 0 13.755 0H3C1.35 0 0.0150003 1.35 0.0150003 3L0 27C0 28.65 1.335 30 2.985 30H21C22.65 30 24 28.65 24 27V10.245C24 9.45 23.685 8.685 23.115 8.115ZM9.345 22.935L6.165 19.755C6.02613 19.6161 5.91597 19.4513 5.84081 19.2698C5.76565 19.0884 5.72697 18.8939 5.72697 18.6975C5.72697 18.5011 5.76565 18.3066 5.84081 18.1252C5.91597 17.9437 6.02613 17.7789 6.165 17.64C6.30387 17.5011 6.46874 17.391 6.65018 17.3158C6.83163 17.2407 7.0261 17.202 7.2225 17.202C7.4189 17.202 7.61337 17.2407 7.79482 17.3158C7.97626 17.391 8.14113 17.5011 8.28 17.64L10.395 19.755L15.705 14.445C15.8439 14.3061 16.0087 14.196 16.1902 14.1208C16.3716 14.0457 16.5661 14.007 16.7625 14.007C16.9589 14.007 17.1534 14.0457 17.3348 14.1208C17.5163 14.196 17.6811 14.3061 17.82 14.445C17.9589 14.5839 18.069 14.7487 18.1442 14.9302C18.2193 15.1116 18.258 15.3061 18.258 15.5025C18.258 15.6989 18.2193 15.8934 18.1442 16.0748C18.069 16.2563 17.9589 16.4211 17.82 16.56L11.46 22.92C10.89 23.52 9.93 23.52 9.345 22.935ZM15 10.5C14.175 10.5 13.5 9.825 13.5 9V2.25L21.75 10.5H15Z" fill="white"/>
</svg>
