<svg width="18" height="17" viewBox="0 0 18 17" fill="none" xmlns="http://www.w3.org/2000/svg">
<path d="M12.3488 11.6159L12.7697 11.1996L11.7923 10.2218L11.3732 10.6381L12.3488 11.6159ZM14.181 11.025L15.9448 11.9798L16.6048 10.7686L14.8418 9.81474L14.181 11.025ZM16.2836 13.8765L14.9729 15.1749L15.9485 16.1518L17.2592 14.8542L16.2836 13.8765ZM14.1736 15.5921C12.8353 15.7171 9.37405 15.6059 5.62486 11.8952L4.64834 12.8721C8.73903 16.9218 12.6331 17.1203 14.3028 16.965L14.1736 15.5921ZM5.62486 11.8952C2.05197 8.3573 1.45941 5.38268 1.38557 4.09157L0.00292904 4.16968C0.0952281 5.79437 0.829006 9.09154 4.64834 12.8721L5.62486 11.8952ZM6.89397 6.21616L7.15887 5.95335L6.18419 4.97651L5.9193 5.23841L6.89397 6.21616ZM7.36931 2.61299L6.20635 1.06549L5.09784 1.89254L6.2608 3.43912L7.36931 2.61299ZM2.29194 0.728236L0.84285 2.16179L1.81937 3.13954L3.26755 1.70599L2.29194 0.728236ZM6.40664 5.72729C5.91745 5.23841 5.91745 5.23841 5.91745 5.24025H5.91561L5.91284 5.24392C5.86897 5.28795 5.8297 5.33629 5.79562 5.3882C5.74577 5.46171 5.69132 5.5582 5.64517 5.68042C5.53282 5.99592 5.50483 6.33508 5.56395 6.66461C5.68763 7.45949 6.23773 8.50984 7.64621 9.9048L8.62274 8.92704C7.30378 7.62215 6.98997 6.82818 6.93182 6.45325C6.90413 6.27498 6.93274 6.18676 6.94105 6.16654C6.94659 6.15429 6.94659 6.15245 6.94105 6.16103C6.93282 6.17371 6.92356 6.18569 6.91336 6.19687L6.90413 6.20605L6.8949 6.21432L6.40664 5.72729ZM7.64621 9.9048C9.05562 11.2998 10.1161 11.8438 10.9154 11.9651C11.3243 12.0276 11.6538 11.9779 11.904 11.8851C12.0441 11.8341 12.175 11.7609 12.2916 11.6683L12.3378 11.6269L12.3442 11.6214L12.347 11.6186L12.3479 11.6168C12.3479 11.6168 12.3488 11.6159 11.8606 11.127C11.3714 10.6381 11.3742 10.6372 11.3742 10.6372L11.376 10.6354L11.3779 10.6335L11.3834 10.6289L11.3926 10.6197L11.4277 10.5922C11.4363 10.5867 11.4342 10.5873 11.4212 10.594C11.3982 10.6023 11.3077 10.6308 11.1259 10.6032C10.7438 10.5444 9.94077 10.2319 8.62274 8.92704L7.64621 9.9048ZM6.20635 1.06457C5.2649 -0.185193 3.41522 -0.383685 2.29194 0.728236L3.26755 1.70599C3.75858 1.21987 4.62988 1.27041 5.09784 1.89254L6.20635 1.06457ZM1.38649 4.09249C1.36803 3.77453 1.51479 3.44187 1.81937 3.14046L0.841927 2.16271C0.346282 2.65342 -0.0441435 3.34814 0.00292904 4.16968L1.38649 4.09249ZM14.9729 15.1749C14.72 15.4267 14.4468 15.5682 14.1745 15.5931L14.3028 16.965C14.9812 16.9016 15.5359 16.5616 15.9494 16.1527L14.9729 15.1749ZM7.15887 5.95335C8.06802 5.0537 8.1354 3.6321 7.37024 2.61391L6.26173 3.44004C6.63369 3.93535 6.57831 4.58504 6.18327 4.97743L7.15887 5.95335ZM15.9457 11.9807C16.6998 12.3887 16.817 13.3499 16.2845 13.8774L17.261 14.8542C18.4978 13.6293 18.1166 11.5865 16.6057 10.7695L15.9457 11.9807ZM12.7697 11.2005C13.1242 10.8495 13.6946 10.7631 14.1819 11.0259L14.8428 9.81566C13.8422 9.27349 12.6017 9.42327 11.7932 10.2228L12.7697 11.2005Z" fill="#E7E2D6"/>
</svg>
