<svg width="27" height="27" viewBox="0 0 27 27" fill="none" xmlns="http://www.w3.org/2000/svg">
<path d="M12.1078 3.36459V8.73687C12.1078 9.1817 12.0199 9.62215 11.8492 10.0329C11.6784 10.4437 11.4282 10.8168 11.1129 11.1307C10.7975 11.4446 10.4232 11.6932 10.0115 11.8621C9.59984 12.0311 9.1588 12.1171 8.71375 12.1153H3.3664C2.92255 12.118 2.48272 12.0311 2.07328 11.8598C1.66384 11.6885 1.29323 11.4363 0.983651 11.1184C0.669342 10.8069 0.420438 10.4357 0.251539 10.0268C0.0826401 9.61782 -0.00285342 9.17928 7.26467e-05 8.73687V3.37844C6.51379e-05 2.48482 0.354288 1.62759 0.985203 0.994404C1.61612 0.36122 2.47233 0.00366239 3.3664 0H8.7276C9.17099 0.000425787 9.6099 0.0887568 10.0189 0.259879C10.4279 0.431001 10.7989 0.681515 11.1104 0.996916C11.4255 1.30566 11.676 1.67402 11.8472 2.08052C12.0185 2.48702 12.1071 2.92353 12.1078 3.36459ZM27 3.37844V8.73687C26.9928 9.62827 26.6363 10.4813 26.0069 11.113C25.3775 11.7446 24.5255 12.1045 23.6337 12.1153H18.2586C17.3626 12.1098 16.5036 11.7575 15.862 11.1322C15.5485 10.8172 15.3003 10.4435 15.1315 10.0325C14.9627 9.62143 14.8767 9.18116 14.8784 8.73687V3.37844C14.8773 2.93505 14.965 2.49591 15.1363 2.0869C15.3076 1.6779 15.559 1.30729 15.8759 0.996916C16.1873 0.681515 16.5583 0.431001 16.9673 0.259879C17.3763 0.0887568 17.8152 0.000425787 18.2586 0H23.6198C24.5141 0.00723743 25.3696 0.365503 26.002 0.997521C26.6343 1.62954 26.9928 2.48466 27 3.37844ZM27 18.263V23.6214C26.9928 24.5128 26.6363 25.3659 26.0069 25.9975C25.3775 26.6291 24.5255 26.989 23.6337 26.9998H18.2586C17.3569 27.009 16.4871 26.6662 15.8343 26.0444C15.5196 25.7303 15.2705 25.3568 15.1017 24.9456C14.9328 24.5343 14.8475 24.0936 14.8507 23.6491V18.2906C14.8496 17.8473 14.9373 17.4081 15.1086 16.9991C15.2799 16.5901 15.5313 16.2195 15.8482 15.9091C16.1596 15.5937 16.5306 15.3432 16.9396 15.1721C17.3486 15.001 17.7875 14.9126 18.2309 14.9122H23.5921C24.4863 14.9194 25.3419 15.2777 25.9743 15.9097C26.6066 16.5417 26.9651 17.3969 26.9723 18.2906L27 18.263ZM12.1078 18.2768V23.6352C12.0969 24.529 11.7349 25.3826 11.1 26.0121C10.4651 26.6415 9.60802 26.9963 8.71375 26.9998H3.3664C2.92382 27.0017 2.48525 26.9159 2.076 26.7474C1.66675 26.579 1.29492 26.3312 0.981962 26.0184C0.669004 25.7056 0.421112 25.334 0.252587 24.925C0.0840616 24.5159 -0.00176003 24.0776 7.26467e-05 23.6352V18.2768C0.00364152 17.383 0.358583 16.5264 0.988338 15.8918C1.61809 15.2572 2.47219 14.8954 3.3664 14.8845H8.7276C9.62557 14.8937 10.4849 15.2511 11.1242 15.8814C11.756 16.5185 12.1097 17.3798 12.1078 18.2768Z" fill="white"/>
</svg>
