<svg width="50" height="49" viewBox="0 0 50 49" fill="none" xmlns="http://www.w3.org/2000/svg">
<path d="M6.24999 49C4.53125 49 3.06041 48.3844 1.8375 47.1533C0.614582 45.9221 0.00208333 44.4403 0 42.7079V36.4157C0 35.5244 0.3 34.7777 0.9 34.1757C1.5 33.5738 2.24166 33.2718 3.125 33.2697C4.00833 33.2676 4.75104 33.5696 5.35312 34.1757C5.9552 34.7819 6.25416 35.5285 6.24999 36.4157V42.7079H43.75V36.4157C43.75 35.5244 44.05 34.7777 44.65 34.1757C45.25 33.5738 45.9916 33.2718 46.875 33.2697C47.7583 33.2676 48.501 33.5696 49.1031 34.1757C49.7052 34.7819 50.0041 35.5285 50 36.4157V42.7079C50 44.4382 49.3885 45.92 48.1656 47.1533C46.9427 48.3865 45.4708 49.0021 43.75 49H6.24999ZM21.875 10.7753L16.0156 16.6742C15.3906 17.3034 14.6489 17.6054 13.7906 17.5803C12.9323 17.5551 12.1896 17.2268 11.5625 16.5955C10.9896 15.9663 10.6896 15.2322 10.6625 14.3933C10.6354 13.5543 10.9354 12.8203 11.5625 12.191L22.8125 0.865215C23.125 0.550608 23.4635 0.328287 23.8281 0.19825C24.1927 0.0682123 24.5833 0.00214578 25 4.84016e-05C25.4166 -0.00204897 25.8073 0.0640175 26.1719 0.19825C26.5364 0.332482 26.875 0.554803 27.1875 0.865215L38.4375 12.191C39.0625 12.8203 39.3625 13.5543 39.3375 14.3933C39.3125 15.2322 39.0125 15.9663 38.4375 16.5955C37.8125 17.2247 37.0708 17.553 36.2125 17.5803C35.3541 17.6075 34.6114 17.3055 33.9843 16.6742L28.125 10.7753V33.2697C28.125 34.1611 27.825 34.9088 27.225 35.5128C26.625 36.1169 25.8833 36.4178 25 36.4157C24.1166 36.4136 23.375 36.1116 22.775 35.5097C22.175 34.9077 21.875 34.1611 21.875 33.2697V10.7753Z" fill="#CAC8C8"/>
</svg>
