<svg width="27" height="29" viewBox="0 0 27 29" fill="none" xmlns="http://www.w3.org/2000/svg">
<path d="M25.5015 5.8C25.8838 5.80041 26.2516 5.94192 26.5297 6.19563C26.8077 6.44934 26.975 6.79608 26.9974 7.16502C27.0198 7.53396 26.8956 7.89725 26.6502 8.18066C26.4048 8.46406 26.0567 8.6462 25.677 8.68985L25.5015 8.7H25.38L24.0013 24.65C24.0014 25.7596 23.5628 26.8272 22.7752 27.6345C21.9877 28.4418 20.9108 28.9277 19.7648 28.9928L19.5007 29H7.49926C5.10197 29 3.14272 27.189 3.01071 25.0125L3.00321 24.7704L1.61854 8.7H1.49852C1.11616 8.69959 0.748382 8.55808 0.470344 8.30437C0.192305 8.05066 0.0249888 7.70392 0.00258037 7.33498C-0.0198281 6.96604 0.104363 6.60275 0.349779 6.31934C0.595194 6.03594 0.943311 5.8538 1.323 5.81015L1.49852 5.8H25.5015ZM16.5004 0C17.2961 0 18.0593 0.305535 18.622 0.84939C19.1846 1.39325 19.5007 2.13087 19.5007 2.9C19.5003 3.26958 19.3539 3.62505 19.0914 3.89378C18.8289 4.16252 18.4702 4.32424 18.0885 4.3459C17.7068 4.36756 17.3309 4.24752 17.0377 4.01032C16.7445 3.77311 16.556 3.43664 16.5109 3.06965L16.5004 2.9H10.4996L10.4891 3.06965C10.444 3.43664 10.2555 3.77311 9.96231 4.01032C9.6691 4.24752 9.29324 4.36756 8.91153 4.3459C8.52982 4.32424 8.17107 4.16252 7.90858 3.89378C7.6461 3.62505 7.49969 3.26958 7.49926 2.9C7.49902 2.16836 7.78491 1.46368 8.29961 0.927205C8.81431 0.390732 9.51978 0.0621228 10.2746 0.00725017L10.4996 0H16.5004Z" fill="#E76148"/>
</svg>
